<svg width="32" height="32" fill="none" xmlns="http://www.w3.org/2000/svg"><g clip-path="url(#a)"><path fill="#fff" d="M0 0h32v32H0z"/><path fill="#3d9970" d="M0 0h512v512H0z"/><path fill-rule="evenodd" clip-rule="evenodd" d="M9.103 19.863c1.955 0 3.478-.302 4.568-.907 1.09-.606 1.636-1.66 1.636-3.162 0-1.01-.286-1.762-.858-2.254-.572-.492-1.323-.831-2.254-1.017.718-.187 1.32-.522 1.805-1.008.485-.485.728-1.133.728-1.945 0-1.276-.528-2.19-1.586-2.742C12.085 6.276 10.56 6 8.564 6H4.436v13.863h4.667Zm-.02-8.398h-.957V8.573h.778c.731 0 1.26.107 1.585.32.326.212.49.564.49 1.056 0 .532-.154.918-.46 1.157-.306.24-.784.36-1.436.36Zm-.957 5.765h.997c.785 0 1.376-.116 1.775-.349.4-.233.599-.668.599-1.306 0-.612-.187-1.054-.559-1.327-.372-.273-.91-.409-1.616-.409H8.126v3.391Zm12.147 2.633v-5.106h1.018l2.712 5.106h4.11l-3.451-5.784c.89-.466 1.539-.991 1.944-1.576.406-.585.609-1.317.609-2.194 0-1.463-.482-2.547-1.446-3.252C24.805 6.352 23.345 6 21.39 6h-4.807v13.863h3.69Zm0-7.62h1.237c1.277 0 1.915-.645 1.915-1.934 0-.599-.176-1.038-.529-1.317-.352-.28-.88-.419-1.585-.419h-1.038v3.67ZM11.247 26.831c.444 0 .825-.097 1.144-.292.32-.196.562-.476.728-.841.166-.366.25-.8.25-1.3 0-.767-.187-1.363-.56-1.789-.371-.426-.892-.638-1.562-.638-.443 0-.823.097-1.14.292a1.866 1.866 0 0 0-.725.838c-.166.364-.249.796-.249 1.297 0 .77.185 1.37.555 1.795.37.425.89.638 1.56.638Zm-6.037-.12.053-1.722c.005-.12.007-.292.007-.518 0-.395-.02-.851-.06-1.37l.672 3.132h1.163l.632-3.132a12.503 12.503 0 0 0-.027 1.602l.007.286.06 1.722h1.21l-.346-4.62H7.045l-.558 3.065-.619-3.066H4.34L4 26.711h1.21Zm5.406-1.127a.679.679 0 0 0 .631.363c.293 0 .506-.12.639-.36.133-.239.2-.635.2-1.19 0-.549-.067-.944-.2-1.183-.133-.24-.346-.359-.639-.359-.288 0-.5.12-.635.36-.135.238-.202.633-.202 1.183s.068.945.206 1.186Zm4.694 1.127c1.556 0 2.334-.775 2.334-2.327 0-.869-.222-1.468-.665-1.798-.444-.33-1.03-.496-1.762-.496h-1.383v4.621h1.476Zm-.246-.877h.319c.337 0 .586-.107.748-.32.162-.212.243-.589.243-1.13 0-.372-.04-.661-.117-.867-.077-.206-.188-.35-.332-.43a1.123 1.123 0 0 0-.549-.119h-.312v2.866Zm5.964.877v-.87h-1.682V24.79h1.376v-.845h-1.376v-.984h1.576l.126-.87h-2.932v4.62h2.912Zm1.729-.957h1.775l-.133.957h-2.872v-4.62h1.23v3.663Zm3.803 1.077c.443 0 .824-.097 1.143-.292.32-.196.562-.476.729-.841.166-.366.249-.8.249-1.3 0-.767-.186-1.363-.559-1.789-.372-.426-.893-.638-1.562-.638-.443 0-.823.097-1.14.292a1.866 1.866 0 0 0-.725.838c-.166.364-.25.796-.25 1.297 0 .77.186 1.37.556 1.795.37.425.89.638 1.559.638Zm-.632-1.247a.679.679 0 0 0 .632.363c.292 0 .505-.12.638-.36.133-.239.2-.635.2-1.19 0-.549-.067-.944-.2-1.183-.133-.24-.346-.359-.638-.359-.288 0-.5.12-.635.36-.135.238-.203.633-.203 1.183s.069.945.206 1.186Z" fill="#fff"/></g><defs><clipPath id="a"><path fill="#fff" d="M0 0h32v32H0z"/></clipPath></defs></svg>