<svg width="250" height="28" fill="none" xmlns="http://www.w3.org/2000/svg"><path d="M14.53 13.957c1.635.33 2.961.943 3.98 1.838 1.018.871 1.527 2.179 1.527 3.922 0 2.709-.995 4.605-2.984 5.689-1.966 1.06-4.76 1.59-8.384 1.59H0V2.403h7.71c3.67 0 6.465.494 8.384 1.484 1.942.966 2.913 2.591 2.913 4.876 0 1.46-.427 2.615-1.28 3.463-.852.824-1.918 1.402-3.197 1.731ZM7.32 7.385v4.523h1.243c1.113 0 1.895-.177 2.345-.53.45-.377.675-1.001.675-1.873 0-.73-.249-1.26-.746-1.59-.474-.353-1.291-.53-2.452-.53H7.32Zm1.42 14.487c1.232 0 2.168-.188 2.807-.565.64-.377.96-1.072.96-2.085 0-.942-.297-1.625-.889-2.05-.568-.447-1.433-.67-2.593-.67H7.319v5.37h1.42ZM30.769 18.233h-1.35v8.763H22.1V2.403h9.06c3.576 0 6.24.636 7.993 1.908 1.753 1.248 2.63 3.215 2.63 5.9 0 1.532-.344 2.804-1.031 3.817-.687 1.013-1.8 1.967-3.34 2.862l6.04 10.106h-8.1l-4.583-8.763Zm-1.35-4.876h1.918c.995 0 1.741-.26 2.238-.778.498-.518.746-1.307.746-2.367 0-1.885-1.113-2.827-3.34-2.827H29.42v5.972ZM78.117 26.996h-7.212l-.177-8.728a96.975 96.975 0 0 1-.036-3.074c0-2.403.095-4.723.284-6.96l-2.913 16.289h-6.928L58.01 8.233c.308 3.274.462 6.078.462 8.41v1.59l-.178 8.763h-7.212l1.777-24.593h9.023l2.843 15.936L67.28 2.403h9.06l1.776 24.593ZM89.025 7.42c3.031 0 5.411.884 7.14 2.65 1.753 1.767 2.63 4.276 2.63 7.527 0 2.026-.403 3.804-1.209 5.335-.781 1.532-1.906 2.71-3.375 3.534-1.468.825-3.197 1.237-5.186 1.237-3.032 0-5.424-.884-7.177-2.65-1.729-1.767-2.593-4.276-2.593-7.527 0-2.026.39-3.804 1.172-5.335.805-1.532 1.942-2.71 3.41-3.534 1.469-.824 3.198-1.237 5.188-1.237Zm0 5.018c-.9 0-1.552.4-1.955 1.201-.402.801-.603 2.097-.603 3.887 0 1.861.2 3.192.603 3.993.403.777 1.055 1.166 1.955 1.166.9 0 1.55-.4 1.953-1.201s.604-2.097.604-3.887c0-1.861-.2-3.18-.603-3.958-.403-.8-1.055-1.201-1.954-1.201ZM119.257.707v26.289h-6.252l-.249-1.943c-1.35 1.766-3.138 2.65-5.365 2.65-2.392 0-4.192-.907-5.4-2.721-1.208-1.814-1.812-4.323-1.812-7.526 0-1.932.332-3.652.995-5.16.663-1.53 1.587-2.72 2.771-3.568 1.208-.872 2.594-1.308 4.157-1.308 1.634 0 3.008.495 4.121 1.484V0l7.034.707Zm-9.485 21.978c.994 0 1.811-.553 2.451-1.66v-7.562c-.332-.354-.663-.613-.995-.778a2.185 2.185 0 0 0-1.101-.282c-.829 0-1.492.412-1.99 1.236-.497.801-.746 2.097-.746 3.887 0 2.073.202 3.451.604 4.134.427.683 1.019 1.025 1.777 1.025ZM140.097 17.314c0 .59-.048 1.331-.142 2.226h-11.511c.189 1.272.58 2.132 1.172 2.58.616.424 1.493.636 2.629.636.664 0 1.339-.13 2.025-.389.687-.283 1.445-.707 2.274-1.272l2.842 3.816c-2.297 1.861-4.902 2.792-7.816 2.792-3.363 0-5.909-.919-7.638-2.756-1.729-1.861-2.593-4.311-2.593-7.35 0-1.885.355-3.593 1.065-5.124.735-1.555 1.812-2.78 3.233-3.675 1.421-.918 3.139-1.378 5.152-1.378 1.871 0 3.505.39 4.903 1.166 1.397.778 2.475 1.909 3.232 3.393.782 1.484 1.173 3.262 1.173 5.335Zm-6.928-1.979c-.024-1.107-.201-1.967-.533-2.579-.308-.613-.876-.919-1.705-.919-.782 0-1.374.271-1.776.813-.379.542-.628 1.52-.747 2.933h4.761v-.248ZM147.793 27.703c-1.918 0-3.398-.53-4.44-1.59-1.019-1.084-1.528-2.603-1.528-4.559V.707L148.859 0v21.272c0 .636.284.954.853.954a2 2 0 0 0 .746-.142l1.243 4.983c-1.113.424-2.415.636-3.908.636ZM161.362 7.42c3.031 0 5.412.884 7.141 2.65 1.752 1.767 2.629 4.276 2.629 7.527 0 2.026-.403 3.804-1.208 5.335-.782 1.532-1.907 2.71-3.375 3.534-1.469.825-3.198 1.237-5.187 1.237-3.032 0-5.424-.884-7.177-2.65-1.729-1.767-2.593-4.276-2.593-7.527 0-2.026.391-3.804 1.172-5.335.806-1.532 1.943-2.71 3.411-3.534 1.468-.824 3.197-1.237 5.187-1.237Zm0 5.018c-.9 0-1.551.4-1.954 1.201s-.604 2.097-.604 3.887c0 1.861.201 3.192.604 3.993.403.777 1.054 1.166 1.954 1.166.9 0 1.551-.4 1.954-1.201.402-.801.604-2.097.604-3.887 0-1.861-.202-3.18-.604-3.958-.403-.8-1.054-1.201-1.954-1.201ZM210.059 2.403l-3.588 24.593h-9.521l-2.203-17.668-2.451 17.668h-9.309l-3.446-24.593h7.319l1.563 19.328 2.629-19.328h7.638l2.203 19.328 2.132-19.328h7.034ZM229.087 17.314c0 .59-.047 1.331-.142 2.226h-11.51c.189 1.272.58 2.132 1.172 2.58.616.424 1.492.636 2.629.636.663 0 1.338-.13 2.025-.389.687-.283 1.445-.707 2.274-1.272l2.842 3.816c-2.297 1.861-4.903 2.792-7.816 2.792-3.363 0-5.909-.919-7.638-2.756-1.729-1.861-2.594-4.311-2.594-7.35 0-1.885.356-3.593 1.066-5.124.734-1.555 1.812-2.78 3.233-3.675 1.421-.918 3.138-1.378 5.151-1.378 1.871 0 3.506.39 4.903 1.166 1.398.778 2.475 1.909 3.233 3.393.782 1.484 1.172 3.262 1.172 5.335Zm-6.927-1.979c-.024-1.107-.202-1.967-.533-2.579-.308-.613-.877-.919-1.705-.919-.782 0-1.374.271-1.777.813-.379.542-.627 1.52-.746 2.933h4.761v-.248ZM243.001 7.42c2.298 0 4.038.896 5.223 2.686 1.184 1.767 1.776 4.264 1.776 7.49 0 1.933-.308 3.664-.924 5.195-.592 1.531-1.468 2.733-2.629 3.604-1.137.872-2.487 1.308-4.05 1.308-1.018 0-1.954-.212-2.806-.636a5.842 5.842 0 0 1-2.096-1.696l-.249 1.625h-6.253V.706L238.027 0v9.788c.522-.707 1.232-1.272 2.132-1.696a6.3 6.3 0 0 1 2.842-.672Zm-2.735 15.3c.805 0 1.421-.388 1.847-1.166.45-.777.675-2.096.675-3.957 0-2.026-.201-3.392-.604-4.099-.379-.707-.935-1.06-1.67-1.06-.971 0-1.8.589-2.487 1.767v7.137c.545.92 1.291 1.379 2.239 1.379Z" fill="#3D9970"/></svg>